<svg width="107" height="121" viewBox="0 0 107 121" fill="none" xmlns="http://www.w3.org/2000/svg">
<path d="M106.207 0.0185547L96.5318 108.408L53.0406 120.465L9.66905 108.425L0.00390625 0.0185547H106.207Z" fill="#264DE4"/>
<path d="M88.249 101.506L96.5173 8.88269H53.106V111.249L88.249 101.506Z" fill="#2965F1"/>
<path d="M22.1616 49.0887L23.3533 62.3841H53.1061V49.0887H22.1616Z" fill="#EBEBEB"/>
<path d="M53.1055 22.1777H53.0596H19.7666L20.9752 35.4734H53.1055V22.1777Z" fill="#EBEBEB"/>
<path d="M53.1061 97.4512V83.6183L53.0478 83.6338L38.2405 79.6355L37.2939 69.0317H30.0987H23.9473L25.81 89.9076L53.0449 97.4682L53.1061 97.4512Z" fill="#EBEBEB"/>
<path d="M69.4306 62.3836L67.8873 79.6269L53.0586 83.6293V97.4616L80.3152 89.9075L80.5152 87.6612L83.6395 52.6584L83.9639 49.0882L86.3641 22.1777H53.0586V35.4734H71.7934L70.5836 49.0882H53.0586V62.3836H69.4306Z" fill="white"/>
</svg>
