<svg width="67" height="100" viewBox="0 0 67 100" fill="none" xmlns="http://www.w3.org/2000/svg">
<path d="M16.6667 100C25.8667 100 33.3333 92.5334 33.3333 83.3334V66.6667H16.6667C7.46667 66.6667 0 74.1334 0 83.3334C0 92.5334 7.46667 100 16.6667 100Z" fill="#0ACF83"/>
<path d="M0 49.9999C0 40.7999 7.46667 33.3333 16.6667 33.3333H33.3333V66.6665H16.6667C7.46667 66.6665 0 59.1999 0 49.9999Z" fill="#A259FF"/>
<path d="M0 16.6667C0 7.46666 7.46667 0 16.6667 0H33.3333V33.3333H16.6667C7.46667 33.3333 0 25.8667 0 16.6667Z" fill="#F24E1E"/>
<path d="M33.3333 0H49.9999C59.2 0 66.6666 7.46666 66.6666 16.6667C66.6666 25.8667 59.2 33.3333 49.9999 33.3333H33.3333V0Z" fill="#FF7262"/>
<path d="M66.6666 49.9999C66.6666 59.1999 59.2 66.6665 49.9999 66.6665C40.7999 66.6665 33.3333 59.1999 33.3333 49.9999C33.3333 40.7999 40.7999 33.3333 49.9999 33.3333C59.2 33.3333 66.6666 40.7999 66.6666 49.9999Z" fill="#1ABCFE"/>
</svg>
