<svg width="73" height="100" viewBox="0 0 73 100" fill="none" xmlns="http://www.w3.org/2000/svg">
<path d="M47.4054 36.1177L37.4046 45.4293L28.1213 26.6966L32.917 15.9255C34.1291 13.777 36.1114 13.7486 37.3235 15.9255L47.4054 36.1177Z" fill="#FFA000"/>
<path d="M37.4088 45.4253L0 80.2193L28.1256 26.6965L37.4088 45.4253Z" fill="#F57F17"/>
<path d="M58.3712 21.8765C60.163 20.1699 62.0075 20.7455 62.4736 23.1697L72.1988 79.7491L39.9424 99.1143C38.8114 99.7467 35.8116 99.994 35.8116 99.994C35.8116 99.994 33.0833 99.6616 32.0375 99.0859L0 80.2194L58.3712 21.8765Z" fill="#FFCA28"/>
<path d="M28.1255 26.6965L0 80.2192L12.5345 1.98839C13.0047 -0.435802 14.379 -0.683086 15.6194 1.46545L28.1255 26.6965Z" fill="#FFA000"/>
</svg>
