<svg width="100" height="90" viewBox="0 0 100 90" fill="none" xmlns="http://www.w3.org/2000/svg">
<path d="M29.883 79.4348C26.0736 76.4384 22.0099 73.5654 19.2332 69.5206C13.3899 62.3867 8.89099 54.1276 5.81501 45.4479C3.95635 39.8044 3.3197 33.7534 0.923266 28.3276C-1.58355 24.3869 1.35275 20.0789 5.66958 18.8266C7.59102 18.4578 10.9704 16.6451 6.8916 17.9404C3.23496 20.624 2.8808 15.5052 6.63004 15.1809C9.18969 14.8409 10.1318 12.7458 9.25613 10.8599C6.50972 9.06819 15.9181 7.09966 11.1838 4.42649C6.25234 -0.893692 18.0823 -1.91797 15.1633 4.12413C14.4649 8.77053 23.4297 3.27248 21.3497 8.6387C23.4632 11.2151 29.2662 9.2246 29.1223 12.8394C32.202 13.0513 33.2592 15.6428 36.15 15.8416C39.1465 17.1949 44.5776 18.2611 45.5977 21.6378C42.6247 23.9909 35.7415 16.7759 35.4108 23.2909C36.3085 32.9143 36.0799 42.8276 39.6011 51.9917C41.2662 57.541 45.3031 61.9091 48.9493 66.2312C52.4386 70.4638 57.164 73.4435 61.9804 75.9524C66.2051 77.9455 70.76 79.2669 75.3645 80.0956C77.2321 78.6674 80.5294 73.3567 83.4432 75.5961C83.5813 78.1124 77.6605 80.8562 83.1643 80.5779C86.3962 79.6033 88.6383 83.0774 91.2995 79.9433C93.7514 82.8482 101.491 78.0878 99.7464 84.0247C97.3871 85.547 93.9465 84.6269 91.5835 86.7209C87.6878 84.7749 84.5857 88.4619 80.2725 87.9958C75.4828 88.8537 70.6099 89.2 65.7532 89.2074C57.7865 88.578 49.6508 88.3128 42.0713 85.5387C37.8026 84.2983 33.6353 81.8669 29.883 79.4348ZM36.6114 82.3502C40.7807 84.1529 44.8574 86.0534 49.4264 86.6262C56.6754 87.6348 64.1608 89.1854 71.4359 87.7708C68.1433 86.2841 64.7393 88.3499 61.4593 86.7079C57.5254 87.5543 53.3038 86.4923 49.304 85.9692C44.7559 83.9431 39.848 82.5501 35.5887 79.9208C30.2669 77.9769 38.3414 82.4135 39.7784 82.7729C43.1055 84.6614 36.1202 81.8051 35.1351 81.0199C32.349 79.4568 31.9938 79.7832 34.8595 81.3704C35.4365 81.7083 36.0061 82.0625 36.6114 82.3502ZM28.6782 76.7439C32.7183 78.24 28.6604 73.9033 26.8096 74.1544C25.9893 72.7315 23.6761 71.8328 25.3077 71.0685C22.3719 72.0875 22.2323 67.1932 20.8528 67.8926C17.747 66.9117 19.6444 63.4382 15.9448 61.3049C15.6069 59.057 12.2693 57.1073 11.2053 53.7169C10.7345 51.9807 7.43356 46.9958 9.46172 51.6349C11.188 56.1013 14.2253 59.9264 16.753 63.7463C18.7158 67.3836 21.0338 71.1852 24.6083 73.4545C25.8136 74.6106 26.977 76.3814 28.6782 76.7439ZM17.0402 63.966C17.1815 63.3555 17.7789 65.2864 17.0402 63.966V63.966ZM33.5166 78.5377C32.2302 78.0329 34.4111 78.137 33.5166 78.5377V78.5377ZM35.7095 79.3381C34.7088 79.9554 35.4825 78.2332 35.7095 79.3381V79.3381ZM38.4549 80.4827C36.4409 79.698 39.7617 79.2382 38.4549 80.4827V80.4827ZM43.1599 83.1051C40.618 82.662 43.954 81.9312 43.1599 83.1051V83.1051ZM34.1255 76.8067C31.5031 76.7889 36.1552 75.4936 34.1255 76.8067V76.8067ZM36.1845 77.8335C35.4506 78.1448 36.127 77.1394 36.1845 77.8335V77.8335ZM46.4765 84.2575C48.1312 85.3022 56.1386 86.5462 51.1245 84.686C50.2854 84.8628 41.8275 82.2937 46.4765 84.2575ZM30.1372 71.532C27.5687 70.763 29.9766 70.8362 30.1372 71.532V71.532ZM34.929 74.3244C32.3406 73.6538 36.1756 73.455 34.929 74.3244V74.3244ZM38.9592 76.7957C36.0558 76.1182 40.7483 76.1208 38.9592 76.7957V76.7957ZM28.188 69.4091C30.1288 70.8974 36.0177 69.5996 31.161 68.5198C28.9502 67.3417 23.9685 66.5351 27.3641 69.2302L28.1875 69.4086L28.188 69.4091ZM41.6889 77.6489C38.2974 76.8621 42.4976 76.271 41.6889 77.6489V77.6489ZM37.586 74.3888C42.3339 75.7316 33.594 71.386 36.4147 73.8944L37.0398 74.1769L37.586 74.3888ZM45.8116 79.1424C41.7506 78.5225 50.3079 79.1853 45.8116 79.1424V79.1424ZM26.4575 66.8071C25.3485 66.8777 26.2818 65.9701 26.4575 66.8071V66.8071ZM53.4173 83.409C51.95 84.5343 53.5371 81.8961 53.4173 83.409V83.409ZM34.1302 71.5058C32.7256 71.4729 33.8582 70.7091 34.1302 71.5058V71.5058ZM26.8839 66.2814C23.3502 65.1441 29.4655 66.1265 26.8839 66.2814V66.2814ZM18.2994 60.7326C15.4907 58.5083 17.9782 59.4954 18.2994 60.7326V60.7326ZM40.8356 75.0348C40.3627 74.4955 40.6133 75.1525 40.8356 75.0348V75.0348ZM54.8627 83.6423C54.099 83.9541 54.8177 82.8184 54.8627 83.6423V83.6423ZM39.5943 73.7527C37.393 73.4315 39.8469 72.6907 39.5943 73.7527V73.7527ZM29.1443 67.1299C26.0683 65.8315 31.0642 66.9243 29.1443 67.1299V67.1299ZM46.8212 78.114C43.9048 77.5354 49.8135 76.9286 46.8212 78.114V78.114ZM37.6263 71.8725C41.0752 72.3172 33.5229 69.5263 36.8698 71.6225L37.6263 71.8725ZM49.6132 79.2429C52.833 77.3177 51.7716 83.7506 55.0762 79.7869C58.3352 77.4067 52.2612 82.729 56.2783 80.2106C59.1838 78.2677 63.4749 81.1319 66.1858 82.0662C68.1349 81.9704 70.0308 83.7522 72.0291 82.6683C75.8762 81.6325 64.5055 81.1313 67.4863 79.2931C63.9656 80.3174 61.3657 78.0716 59.6331 75.8169C55.6846 74.9051 51.1187 72.8864 49.1481 69.3919C48.3446 68.0799 50.3094 69.5765 48.4544 67.4317C46.0753 65.3157 44.8867 62.9135 43.2901 60.3408C41.3818 59.3228 41.1595 56.3268 40.9664 60.2403C40.9821 57.7706 38.6626 56.1076 38.0971 56.7992C38.0866 54.42 40.5783 55.6128 38.8342 53.8524C38.4586 51.3869 37.2229 48.8179 36.851 46.0343C36.2735 44.6925 36.7694 41.8185 34.8804 44.8562C34.1925 48.0667 34.6523 40.9114 35.7226 43.2712C37.1272 40.8632 35.2178 41.1462 35.1399 41.4805C36.0553 39.4492 35.719 36.5673 34.9008 37.6669C35.3889 35.5137 35.6713 29.7426 34.171 30.7653C35.0807 28.5138 35.8958 20.4629 31.9477 23.5326C30.348 23.5551 27.5776 24.1133 26.2682 24.7646C30.3747 27.0281 25.8549 25.5822 24.1835 25.2223C23.9659 27.3169 22.3102 26.4108 20.2418 26.4312C23.5453 26.8403 18.6332 29.8106 16.7379 28.6566C14.2766 29.8331 18.8618 32.7694 16.787 33.6771C17.0418 35.0461 13.0164 33.1832 13.3323 36.3439C10.9427 35.339 13.0033 40.0937 14.1986 38.4856C18.2633 39.5858 17.0601 42.0931 17.1632 44.4754C16.5014 45.8633 13.8936 41.2127 16.5825 41.4282C14.4618 37.9824 14.2363 40.1826 12.4739 41.7834C12.0637 41.8995 16.9696 44.0611 13.891 45.1298C16.5998 45.5478 16.6767 47.9181 17.2286 49.4179C18.856 51.1133 18.5233 47.5451 20.4709 49.5832C19.2384 47.768 13.9418 44.4681 18.2058 45.5264C18.1833 43.6991 17.4347 42.2254 18.7414 42.2615C20.0351 39.9179 17.3865 48.0389 20.303 45.0603C21.1102 44.7082 21.31 42.7146 22.7617 45.2486C24.8688 47.3223 23.5228 48.8252 20.5494 46.9263C21.0814 48.731 24.5267 49.3755 23.8791 52.1978C24.5659 54.6795 25.5259 53.7656 26.3629 53.6217C27.0199 56.0333 27.3924 54.2599 27.4238 53.1127C30.4302 53.7562 29.726 55.5338 30.6671 56.7751C32.7387 57.7105 27.701 50.4364 31.2583 54.5885C35.0007 57.9668 32.6618 59.3772 29.3033 58.8363C31.4288 58.6636 32.1146 61.7093 34.7731 61.6025C37.1978 62.7555 38.8389 67.1859 34.6601 65.3413C33.2111 64.0345 28.0813 62.4223 32.271 64.9082C36.1401 66.6999 39.2129 67.7723 42.9449 70.0212C45.616 71.928 46.7695 74.112 47.7817 74.5436C45.5375 75.616 41.0177 73.6878 44.3735 73.0967C42.2805 72.7153 39.9259 71.657 41.9305 74.2653C43.6359 75.6882 47.9716 75.5381 48.749 75.6987C48.0898 77.1509 46.9594 77.266 48.7756 77.379C46.7491 78.4587 49.4254 78.6261 49.6132 79.2429ZM45.4695 67.5405C44.2365 66.2516 43.9179 63.8363 45.2503 65.9377C45.934 66.2123 47.4401 69.8841 45.4695 67.5405ZM58.9646 76.113C58.9871 76.6973 59.7336 76.0633 58.9646 76.113V76.113ZM43.5224 64.3793C43.4753 62.4301 43.9686 65.8828 43.5224 64.3793V64.3793ZM42.1816 62.5745C40.6306 59.578 44.1366 63.423 42.1816 62.5745V62.5745ZM25.9271 51.3561C26.3754 52.9145 26.8379 51.1133 25.9271 51.3561V51.3561ZM38.8629 58.368C39.4227 56.2667 39.5205 60.131 38.8629 58.368V58.368ZM29.7239 52.0131C29.08 50.8539 31.0715 53.1007 29.7239 52.0131V52.0131ZM37.5672 54.5278C36.0982 51.2358 38.6071 52.7298 37.892 55.0666L37.5672 54.5278ZM24.0417 45.5075C23.3847 44.4273 22.2982 41.2587 22.6481 40.292C22.9646 41.8666 25.9982 47.0712 24.1364 42.4473C22.0785 38.5714 26.5956 43.7054 27.0607 44.6721C27.2768 45.6341 25.7911 44.4095 26.7976 46.6642C24.9614 44.0972 25.7137 48.0824 24.0417 45.5075ZM19.862 42.6272C20.0336 40.1162 20.8188 44.3488 19.862 42.6272V42.6272ZM21.7421 43.2743C22.6393 41.379 23.2633 45.9161 21.7421 43.2743V43.2743ZM17.2186 39.7751C15.6623 38.2288 14.5366 36.8038 17.2919 38.8157C18.3538 38.857 14.9326 35.5739 17.5471 37.7731C20.2967 38.2743 18.9047 42.2804 17.2186 39.7751ZM19.5947 39.7134C20.0744 40.5949 20.4986 38.8178 19.5947 39.7134V39.7134ZM21.0568 40.1821C19.6862 37.6136 22.7193 41.2587 21.0568 40.1821V40.1821ZM18.1503 37.4043C13.6263 33.3783 23.8356 39.5099 18.8895 38.1508L18.1503 37.4043ZM31.1134 44.9363C29.1553 43.7624 30.5944 36.6719 31.2619 41.5213C33.1651 40.9056 31.1568 44.0255 32.5765 43.9967C32.3526 45.9653 31.7176 46.6731 31.1128 44.9363H31.1134ZM35.9078 47.7701C36.0998 45.6331 36.3117 49.2306 35.9078 47.7701V47.7701ZM35.075 46.9472C35.097 48.0217 35.2905 46.0343 35.075 46.9472V46.9472ZM19.0381 36.0819C16.1316 32.0716 27.485 40.1382 20.8993 37.0988C20.2114 36.9189 19.3833 36.855 19.0381 36.0819ZM28.2707 40.9767C27.9955 37.6 28.8848 41.5365 28.2707 40.9767V40.9767ZM35.2806 45.4735C35.3209 46.7458 35.8231 43.55 35.2806 45.4735V45.4735ZM19.4832 34.5507C21.2106 34.1819 26.6422 37.5848 21.6542 35.5237C21.0997 34.9095 19.9185 35.1889 19.4832 34.5507ZM34.317 41.945C34.5016 38.4924 35.3481 39.8829 34.3233 42.4394L34.317 41.945ZM20.7686 33.3501C21.4722 32.318 18.9 28.6823 21.1395 32.0459C22.1072 32.8149 23.9408 33.3339 22.3217 33.6572C24.8683 35.904 21.7008 34.2661 20.7686 33.3501ZM33.5836 40.8664C34.0125 43.1707 34.0701 36.9335 33.5836 40.8664V40.8664ZM19.2991 29.717C19.5832 30.4337 19.8369 29.4868 19.2991 29.717V29.717ZM22.6419 31.7064C23.5019 29.9017 24.2285 33.7194 22.6419 31.7064V31.7064ZM32.0702 36.9513C32.0613 36.2582 32.248 37.9599 32.0702 36.9513V36.9513ZM31.524 35.7424C30.2152 32.5136 32.7413 37.4519 31.524 35.7424V35.7424ZM30.7205 33.6258C30.5008 32.2918 31.467 35.3019 30.7205 33.6258V33.6258ZM32.0283 31.4998C31.1301 29.9174 33.1624 24.5265 33.389 27.8693C32.4411 30.475 33.1154 31.9324 33.7766 28.438C34.9981 25.6879 33.5129 33.8649 32.0283 31.4998ZM33.3722 23.4819C33.4591 24.0615 33.7635 23.0016 33.3722 23.4819V23.4819ZM31.128 67.7043C30.5955 67.2397 31.195 67.9998 31.128 67.7043V67.7043ZM35.7509 70.0426C38.3226 70.7028 38.3095 69.6424 35.9852 69.3281C34.735 68.1646 30.7906 66.9311 34.3217 69.1837C34.555 69.7759 35.2942 69.7623 35.7509 70.0426ZM26.6202 63.9781C28.0374 65.0348 31.9566 66.9724 28.6385 64.3809C29.7574 63.0804 26.4973 62.3888 27.5786 61.5194C24.828 59.8359 25.4087 59.9856 27.3359 60.0389C24.0297 58.5611 27.813 58.6715 27.6351 57.9145C26.3602 57.6629 21.3037 55.6666 24.2787 58.0782C21.2545 56.5366 23.5579 58.6526 22.644 58.4287C19.5512 57.586 25.3977 60.7844 22.1522 59.9903C23.9267 61.3964 26.9284 63.5915 22.9029 61.478C22.3725 62.2418 25.7832 63.3984 26.6202 63.9781ZM31.4555 66.7558C28.5731 64.4415 37.3354 68.6506 31.4555 66.7558V66.7558ZM56.2082 81.7512C55.4047 82.7462 56.2841 80.5847 56.2082 81.7512V81.7512ZM58.7522 82.8221C60.1086 81.5075 58.8076 84.9156 61 82.5004C61.0236 80.7709 60.932 79.7498 58.4807 81.8501C57.8048 82.2247 57.5024 83.8186 58.7522 82.8221ZM18.3679 57.4599C15.4478 55.8304 17.951 55.8225 18.3679 57.4599V57.4599ZM21.0845 59.2396C17.4854 57.7257 20.0754 57.5671 21.0845 59.2396V59.2396ZM36.5392 68.5601C38.0479 69.9004 43.4696 69.5436 38.3717 68.7254C37.6169 67.6091 33.5778 67.878 36.5392 68.5601ZM57.7844 81.6811C55.5349 82.5506 60.1071 79.7325 57.7844 81.6811V81.6811ZM62.6144 85.0004C61.6137 85.274 62.6291 84.3747 62.6144 85.0004V85.0004ZM62.6217 84.1247C60.1301 84.2858 65.1934 81.3997 62.6217 84.1247V84.1247ZM11.6866 51.8661C9.49468 48.7384 10.3238 47.3327 8.2104 44.7793C7.81021 42.8265 4.5841 38.3951 6.54163 43.0896C8.33491 45.8355 8.86745 50.0865 11.6866 51.8661ZM61.8156 83.2589C59.8738 81.9265 66.5473 80.2007 61.8156 83.2589V83.2589ZM65.4273 84.6734C63.929 84.2481 67.797 82.639 65.4273 84.6734V84.6734ZM17.5628 54.0026C15.8119 53.8739 18.2408 52.994 17.5628 54.0026V54.0026ZM64.6734 83.7072C66.9673 82.2283 64.1451 82.4554 64.2575 83.8432L64.6734 83.7072ZM33.5401 64.0837C32.3286 64.169 33.4617 63.0851 33.5401 64.0837V64.0837ZM35.4642 65.1912C34.5241 65.3853 34.8527 63.955 35.4642 65.1912V65.1912ZM68.3541 84.7069C71.2936 82.5867 66.5729 84.3009 67.7374 85.1087L68.3541 84.7069ZM67.2294 84.1628C64.7012 85.0522 69.6232 82.1567 67.2294 84.1628V84.1628ZM72.9786 87.9921C71.0263 87.6437 74.5867 86.9155 72.9786 87.9921V87.9921ZM19.0365 53.2754C21.1918 53.7583 27.6471 58.582 23.8388 53.6092C21.8875 53.0316 23.0578 48.2628 21.0683 49.1072C22.4038 51.3383 22.1669 52.2878 19.3629 50.8811C15.8386 49.161 17.3824 51.7338 18.0708 52.4426C17.1328 52.656 19.3127 53.2576 19.0365 53.2754ZM9.22004 45.5222C9.60558 43.9266 5.66801 36.7441 7.36032 41.9231C7.97134 43.008 7.90961 45.0639 9.22004 45.5222ZM27.238 56.6308C26.1285 55.7027 27.1857 56.4994 27.238 56.6308V56.6308ZM29.9703 57.2663C26.9503 56.58 29.9688 55.5767 29.9703 57.2663V57.2663ZM53.6475 72.1932C51.8626 72.166 53.1961 71.0382 53.6475 72.1932V72.1932ZM54.7848 73.0234C54.1288 73.1484 54.6174 72.3774 54.7848 73.0234V73.0234ZM64.1697 78.9347C63.0434 78.8495 65.0726 78.2683 64.1697 78.9347V78.9347ZM14.1233 46.7745C11.3575 46.0615 16.7049 45.7749 14.1233 46.7745V46.7745ZM51.5634 70.3623C49.9176 70.7766 51.5346 68.6904 51.5634 70.3623V70.3623ZM13.1032 44.3975C11.5694 44.0287 14.7615 43.8372 13.1032 44.3975V44.3975ZM17.917 46.729C17.408 46.9372 17.8867 46.1798 17.917 46.729V46.729ZM76.6274 82.7321C78.7602 82.2995 83.6195 83.8176 84.4052 82.1671C81.8157 82.1038 75.4451 80.3393 75.1438 82.5877L75.7109 82.6767L76.6274 82.7321ZM19.4466 47.1146C18.1262 47.0518 19.4838 45.4212 19.4466 47.1146V47.1146ZM6.79064 38.3355C4.6045 37.8469 6.21573 35.1083 6.79064 38.3355V38.3355ZM9.80907 39.094C7.04645 38.1618 9.84569 38.0582 9.80907 39.094V39.094ZM11.5333 39.9415C11.0348 39.5371 11.143 40.451 11.5333 39.9415V39.9415ZM22.3855 46.9027C21.1761 46.5548 22.8966 46.4335 22.3855 46.9027V46.9027ZM10.385 38.0305C6.88899 37.6654 10.0931 35.5933 10.385 38.0305V38.0305ZM4.19699 34.016C3.59382 34.4398 4.10858 32.8913 4.19699 34.016V34.016ZM5.11716 33.3208C4.32724 33.4908 4.96703 31.9868 5.11716 33.3208V33.3208ZM10.2019 36.3565C12.3525 35.5117 6.28583 34.6093 9.76252 36.1969L10.2019 36.3565ZM78.2595 78.3943C76.5107 78.0041 79.6359 77.1326 78.2595 78.3943V78.3943ZM86.4815 82.6562C85.0931 82.8707 87.0329 81.0246 86.4815 82.6562V82.6562ZM10.723 33.6912C9.01759 34.0045 10.949 32.1129 10.723 33.6912V33.6912ZM3.4871 28.8434C3.09842 26.6154 3.15178 22.7045 6.86911 24.0264C1.90674 25.0115 10.3034 30.1941 9.24305 26.1022C11.3298 26.2042 13.325 24.8692 12.2301 26.8958C16.3413 26.4417 19.1913 22.8766 23.1624 23.3762C26.2556 22.9666 29.6376 22.6564 32.971 21.4113C35.7122 21.2136 38.3503 18.2632 36.8479 16.5138C33.1101 16.1979 29.1982 16.6655 25.0671 17.4868C20.4897 18.4379 16.3309 20.2463 11.7127 21.0221C7.21071 21.6269 12.6177 22.6883 11.3288 22.9247C8.9794 23.7403 14.1301 24.2901 11.0238 25.1491C9.10547 24.7844 7.10922 24.1253 7.92844 22.1034C3.61579 22.6632 -0.173728 24.4528 3.23339 28.8413L3.4871 28.8434ZM13.8785 23.5514C14.8897 19.8268 19.2954 26.6164 15.5357 24.0458C15.0869 23.7099 14.3482 23.4358 13.8785 23.5514ZM14.0752 21.7451C14.851 22.3551 15.5347 20.658 14.0752 21.7451V21.7451ZM15.9281 21.7749C16.0599 20.0606 20.1706 22.682 16.606 22.3922L15.9281 21.7749ZM18.4631 20.7553C18.7289 21.7179 19.3891 19.674 18.4631 20.7553V20.7553ZM19.1118 20.3211C20.6529 18.4693 27.8402 19.1389 22.5791 20.1407C21.1693 19.0787 20.089 20.7668 19.1118 20.3211ZM28.4915 18.8752C28.2566 13.8166 33.1509 20.6732 28.4915 18.8752V18.8752ZM31.1526 18.8611C32.1256 16.3114 34.9285 17.8379 31.6025 18.3484C31.6752 18.6199 31.5052 19.6646 31.1526 18.8611ZM9.67306 32.3823C6.58662 30.8375 12.5806 30.6021 9.67306 32.3823V32.3823ZM11.8231 32.9797C9.60767 32.5403 12.8422 31.8958 11.8231 32.9797V32.9797ZM5.48858 28.484C3.52268 27.9985 7.14951 27.2076 5.48858 28.484V28.484ZM91.3345 82.1891C90.0649 82.8566 91.3826 80.7086 91.3345 82.1891V82.1891ZM82.6114 76.2359C81.4903 76.385 82.8594 74.5316 82.6114 76.2359V76.2359ZM93.733 82.7635C96.0557 82.7713 100.771 82.0416 95.7167 82.0442C94.9242 82.1682 91.096 82.1415 93.733 82.7635ZM13.7137 31.935C15.5933 31.8058 16.6547 29.8614 13.3501 29.9733C8.22871 29.4429 17.8683 31.7268 12.6931 31.0735C11.9973 31.5338 13.6739 32.0622 13.7137 31.935ZM15.3689 32.7726C14.7882 33.4139 15.1727 31.5657 15.3689 32.7726V32.7726ZM17.3327 27.5361C16.2043 27.2656 18.1487 26.5244 17.3327 27.5361V27.5361ZM11.0813 17.0867C14.4361 15.9452 19.0239 14.663 20.6074 17.6485C18.9957 15.7082 19.9572 13.7983 21.4795 16.6352C23.6327 19.5056 24.7103 15.3295 23.3104 14.3669C24.906 16.3496 26.7212 17.2865 24.3786 14.4925C26.9242 11.4306 19.2818 14.8932 17.5451 14.8587C16.7091 15.2332 8.91662 16.8455 11.0813 17.0872V17.0867ZM13.0477 13.3212C14.9608 11.8774 19.6642 14.1802 16.6463 11.8863C16.3508 11.6257 10.0366 13.6257 13.0477 13.3212ZM20.0226 13.6089C22.2616 13.6665 19.0569 10.6009 21.7248 11.9904C21.287 10.5586 18.6185 10.2902 17.3138 9.71843C16.5762 11.0273 18.8157 13.6267 20.0226 13.6094V13.6089ZM14.2703 7.27805C12.9128 7.81059 15.045 6.22814 14.2703 7.27805V7.27805ZM17.1213 7.96073C20.7298 7.48207 16.2017 6.40705 16.3942 7.92202L17.1213 7.96073ZM11.7985 3.79508C9.2577 0.478466 16.5767 4.35221 13.9951 0.879703C11.8226 -0.850273 9.73479 2.82678 11.798 3.79508H11.7985ZM44.4049 21.3575C45.5699 19.2916 39.5937 18.5729 43.6197 20.6251C43.9901 20.7496 43.9069 21.5003 44.4049 21.3575Z" fill="white"/>
</svg>
