<svg width="48" height="49" viewBox="0 0 48 49" fill="none" xmlns="http://www.w3.org/2000/svg">
<g clip-path="url(#clip0_1_303)">
<path fill-rule="evenodd" clip-rule="evenodd" d="M24.0005 1.00171C18.303 1.00467 12.7923 3.02263 8.45374 6.69475C4.11521 10.3669 1.23181 15.4537 0.319089 21.0457C-0.593628 26.6377 0.523853 32.3701 3.47174 37.2181C6.41963 42.066 11.0057 45.7132 16.4099 47.5077C17.6021 47.7289 18.0512 46.99 18.0512 46.3617C18.0512 45.7334 18.0273 43.9117 18.0194 41.9201C11.3428 43.3625 9.93197 39.1027 9.93197 39.1027C8.84305 36.3366 7.26927 35.6095 7.26927 35.6095C5.09143 34.1316 7.43223 34.1593 7.43223 34.1593C9.84455 34.3292 11.1123 36.6211 11.1123 36.6211C13.2504 40.2684 16.7278 39.2133 18.0949 38.5969C18.3095 37.0518 18.9335 36.0007 19.621 35.404C14.2877 34.8034 8.68408 32.7565 8.68408 23.6126C8.65102 21.2411 9.53605 18.9478 11.156 17.2071C10.9096 16.6064 10.087 14.1802 11.3905 10.8846C11.3905 10.8846 13.4054 10.2444 17.9916 13.3306C21.9253 12.261 26.0757 12.261 30.0095 13.3306C34.5917 10.2444 36.6026 10.8846 36.6026 10.8846C37.9101 14.1723 37.0875 16.5985 36.8411 17.2071C38.4662 18.9481 39.353 21.2454 39.317 23.6205C39.317 32.7841 33.7015 34.8034 28.3602 35.3922C29.2186 36.1351 29.9856 37.5853 29.9856 39.814C29.9856 43.0068 29.9578 45.5753 29.9578 46.3617C29.9578 46.9979 30.391 47.7408 31.6071 47.5077C37.0119 45.713 41.5984 42.0651 44.5462 37.2164C47.4941 32.3676 48.611 26.6343 47.6972 21.0418C46.7835 15.4493 43.8986 10.3624 39.5587 6.69092C35.2187 3.01942 29.7067 1.00279 24.0085 1.00171H24.0005Z" fill="white"/>
<path d="M9.08887 35.2657C9.03721 35.3843 8.84645 35.4198 8.69146 35.3368C8.53646 35.2539 8.42122 35.0998 8.47686 34.9773C8.5325 34.8548 8.71928 34.8231 8.87428 34.9061C9.02927 34.9891 9.14848 35.1472 9.08887 35.2657Z" fill="white"/>
<path d="M10.0625 36.3445C9.98016 36.3857 9.88599 36.3972 9.7961 36.377C9.7062 36.3569 9.62616 36.3062 9.56967 36.2338C9.41467 36.0679 9.38286 35.8387 9.50209 35.7359C9.62131 35.6332 9.83593 35.6806 9.99093 35.8466C10.1459 36.0126 10.1817 36.2417 10.0625 36.3445Z" fill="white"/>
<path d="M11.0085 37.7158C10.8614 37.8185 10.6111 37.7158 10.472 37.5103C10.4335 37.4734 10.4029 37.4292 10.382 37.3803C10.3611 37.3315 10.3503 37.2789 10.3503 37.2258C10.3503 37.1727 10.3611 37.1201 10.382 37.0712C10.4029 37.0223 10.4335 36.9781 10.472 36.9413C10.619 36.8425 10.8694 36.9413 11.0085 37.1428C11.1476 37.3443 11.1516 37.613 11.0085 37.7158Z" fill="white"/>
<path d="M12.2922 39.0434C12.1611 39.1897 11.8948 39.1501 11.6762 38.9526C11.4577 38.755 11.406 38.4863 11.5371 38.344C11.6683 38.2018 11.9345 38.2413 12.1611 38.4349C12.3876 38.6285 12.4313 38.9012 12.2922 39.0434Z" fill="white"/>
<path d="M14.0923 39.818C14.0327 40.0037 13.7625 40.0867 13.4922 40.0077C13.222 39.9286 13.0432 39.7073 13.0948 39.5177C13.1465 39.328 13.4207 39.2411 13.6949 39.328C13.9691 39.4149 14.144 39.6244 14.0923 39.818Z" fill="white"/>
<path d="M16.0557 39.9523C16.0557 40.1459 15.8331 40.3119 15.547 40.3158C15.2608 40.3198 15.0264 40.1617 15.0264 39.9681C15.0264 39.7745 15.2489 39.6085 15.535 39.6046C15.8212 39.6006 16.0557 39.7547 16.0557 39.9523Z" fill="white"/>
<path d="M17.8838 39.648C17.9196 39.8417 17.7208 40.0432 17.4347 40.0906C17.1486 40.138 16.8982 40.0234 16.8624 39.8338C16.8267 39.6441 17.0333 39.4386 17.3115 39.3872C17.5897 39.3359 17.848 39.4544 17.8838 39.648Z" fill="white"/>
</g>
<defs>
<clipPath id="clip0_1_303">
<rect width="48" height="48" fill="white" transform="translate(0 0.00170898)"/>
</clipPath>
</defs>
</svg>
