<svg width="48" height="49" viewBox="0 0 48 49" fill="none" xmlns="http://www.w3.org/2000/svg">
<g clip-path="url(#clip0_1_301)">
<path d="M24 4.32358C30.4125 4.32358 31.1719 4.35171 33.6938 4.46421C36.0375 4.56733 37.3031 4.96108 38.1469 5.28921C39.2625 5.72046 40.0688 6.24546 40.9031 7.07983C41.7469 7.92358 42.2625 8.72046 42.6938 9.83608C43.0219 10.6798 43.4156 11.9548 43.5188 14.2892C43.6313 16.8205 43.6594 17.5798 43.6594 23.983C43.6594 30.3955 43.6313 31.1548 43.5188 33.6767C43.4156 36.0205 43.0219 37.2861 42.6938 38.1298C42.2625 39.2455 41.7375 40.0517 40.9031 40.8861C40.0594 41.7298 39.2625 42.2455 38.1469 42.6767C37.3031 43.0048 36.0281 43.3986 33.6938 43.5017C31.1625 43.6142 30.4031 43.6423 24 43.6423C17.5875 43.6423 16.8281 43.6142 14.3063 43.5017C11.9625 43.3986 10.6969 43.0048 9.85313 42.6767C8.7375 42.2455 7.93125 41.7205 7.09688 40.8861C6.25313 40.0423 5.7375 39.2455 5.30625 38.1298C4.97813 37.2861 4.58438 36.0111 4.48125 33.6767C4.36875 31.1455 4.34063 30.3861 4.34063 23.983C4.34063 17.5705 4.36875 16.8111 4.48125 14.2892C4.58438 11.9455 4.97813 10.6798 5.30625 9.83608C5.7375 8.72046 6.2625 7.91421 7.09688 7.07983C7.94063 6.23608 8.7375 5.72046 9.85313 5.28921C10.6969 4.96108 11.9719 4.56733 14.3063 4.46421C16.8281 4.35171 17.5875 4.32358 24 4.32358ZM24 0.00170898C17.4844 0.00170898 16.6688 0.029834 14.1094 0.142334C11.5594 0.254834 9.80625 0.667334 8.2875 1.25796C6.70312 1.87671 5.3625 2.69233 4.03125 4.03296C2.69063 5.36421 1.875 6.70483 1.25625 8.27983C0.665625 9.80796 0.253125 11.5517 0.140625 14.1017C0.028125 16.6705 0 17.4861 0 24.0017C0 30.5173 0.028125 31.333 0.140625 33.8923C0.253125 36.4423 0.665625 38.1955 1.25625 39.7142C1.875 41.2986 2.69063 42.6392 4.03125 43.9705C5.3625 45.3017 6.70313 46.1267 8.27813 46.7361C9.80625 47.3267 11.55 47.7392 14.1 47.8517C16.6594 47.9642 17.475 47.9923 23.9906 47.9923C30.5063 47.9923 31.3219 47.9642 33.8813 47.8517C36.4313 47.7392 38.1844 47.3267 39.7031 46.7361C41.2781 46.1267 42.6188 45.3017 43.95 43.9705C45.2812 42.6392 46.1063 41.2986 46.7156 39.7236C47.3063 38.1955 47.7188 36.4517 47.8313 33.9017C47.9438 31.3423 47.9719 30.5267 47.9719 24.0111C47.9719 17.4955 47.9438 16.6798 47.8313 14.1205C47.7188 11.5705 47.3063 9.81733 46.7156 8.29858C46.125 6.70483 45.3094 5.36421 43.9688 4.03296C42.6375 2.70171 41.2969 1.87671 39.7219 1.26733C38.1938 0.676709 36.45 0.264209 33.9 0.151709C31.3313 0.029834 30.5156 0.00170898 24 0.00170898Z" fill="white"/>
<path d="M24 11.6736C17.1938 11.6736 11.6719 17.1955 11.6719 24.0017C11.6719 30.808 17.1938 36.3298 24 36.3298C30.8062 36.3298 36.3281 30.808 36.3281 24.0017C36.3281 17.1955 30.8062 11.6736 24 11.6736ZM24 31.9986C19.5844 31.9986 16.0031 28.4173 16.0031 24.0017C16.0031 19.5861 19.5844 16.0048 24 16.0048C28.4156 16.0048 31.9969 19.5861 31.9969 24.0017C31.9969 28.4173 28.4156 31.9986 24 31.9986Z" fill="white"/>
<path d="M39.6937 11.186C39.6937 12.7797 38.4 14.0641 36.8156 14.0641C35.2219 14.0641 33.9375 12.7704 33.9375 11.186C33.9375 9.59224 35.2313 8.30786 36.8156 8.30786C38.4 8.30786 39.6937 9.60161 39.6937 11.186Z" fill="white"/>
</g>
<defs>
<clipPath id="clip0_1_301">
<rect width="48" height="48" fill="white" transform="translate(0 0.00170898)"/>
</clipPath>
</defs>
</svg>
