<svg width="122" height="121" viewBox="0 0 122 121" fill="none" xmlns="http://www.w3.org/2000/svg">
<path d="M121.026 0.223145H0.580078V120.669H121.026V0.223145Z" fill="#F7DF1E"/>
<path d="M81.4893 94.3217C83.9154 98.283 87.0719 101.195 92.6544 101.195C97.3442 101.195 100.34 98.8508 100.34 95.6122C100.34 91.7311 97.262 90.3565 92.1 88.0986L89.2705 86.8846C81.1031 83.405 75.6773 79.046 75.6773 69.8309C75.6773 61.3423 82.145 54.8803 92.253 54.8803C99.4491 54.8803 104.623 57.3848 108.351 63.9425L99.5371 69.6015C97.5966 66.122 95.5031 64.7512 92.253 64.7512C88.9378 64.7512 86.8367 66.8542 86.8367 69.6015C86.8367 72.9969 88.9397 74.3716 93.7958 76.4746L96.6253 77.6867C106.242 81.8105 111.672 86.0147 111.672 95.4669C111.672 105.657 103.667 111.24 92.9164 111.24C82.405 111.24 75.6142 106.231 72.2914 99.6653L81.4893 94.3217ZM41.5069 95.3024C43.2849 98.457 44.9023 101.124 48.791 101.124C52.5095 101.124 54.8554 99.6691 54.8554 94.0119V55.5265H66.1735V94.1649C66.1735 105.884 59.3023 111.219 49.2728 111.219C40.2106 111.219 34.9626 106.529 32.2937 100.88L41.5069 95.3024Z" fill="black"/>
</svg>
