<svg width="48" height="49" viewBox="0 0 48 49" fill="none" xmlns="http://www.w3.org/2000/svg">
<g clip-path="url(#clip0_1_302)">
<path d="M44.4469 0.00170898H3.54375C1.58437 0.00170898 0 1.54858 0 3.46108V44.533C0 46.4455 1.58437 48.0017 3.54375 48.0017H44.4469C46.4062 48.0017 48 46.4455 48 44.5423V3.46108C48 1.54858 46.4062 0.00170898 44.4469 0.00170898ZM14.2406 40.9048H7.11563V17.9923H14.2406V40.9048ZM10.6781 14.8705C8.39062 14.8705 6.54375 13.0236 6.54375 10.7455C6.54375 8.46733 8.39062 6.62046 10.6781 6.62046C12.9563 6.62046 14.8031 8.46733 14.8031 10.7455C14.8031 13.0142 12.9563 14.8705 10.6781 14.8705ZM40.9031 40.9048H33.7875V29.7673C33.7875 27.1142 33.7406 23.6923 30.0844 23.6923C26.3812 23.6923 25.8187 26.5892 25.8187 29.5798V40.9048H18.7125V17.9923H25.5375V21.1236H25.6312C26.5781 19.3236 28.9031 17.4205 32.3625 17.4205C39.5719 17.4205 40.9031 22.1642 40.9031 28.333V40.9048Z" fill="white"/>
</g>
<defs>
<clipPath id="clip0_1_302">
<rect width="48" height="48" fill="white" transform="translate(0 0.00170898)"/>
</clipPath>
</defs>
</svg>
