<svg width="100" height="100" viewBox="0 0 100 100" fill="none" xmlns="http://www.w3.org/2000/svg">
<path d="M59.8014 64.7173L35.2764 59.5924C35.1737 59.791 35.0595 59.9834 34.9342 60.1686L57.2608 92.7376L58.6077 91.3923L62.4061 67.7716C61.764 67.5004 61.1943 67.083 60.7421 66.5527C60.2899 66.0223 59.9678 65.3938 59.8014 64.717V64.7173ZM50.8547 32.6577C49.9359 34.067 48.35 34.9998 46.5438 34.9998C46.2657 34.9998 45.9954 34.9717 45.7298 34.9295L34.5452 52.4296L64.4267 39.5705C64.4174 39.4502 64.3908 39.3377 64.3908 39.2142C64.3908 38.9627 64.4252 38.7189 64.4658 38.4783L50.8547 32.6581V32.6577ZM51.6672 29.4687L66.1455 35.6592C66.6068 35.2986 67.1345 35.0321 67.6986 34.8748L70.0782 20.0782L61.0123 11.0123L50.8078 26.98C51.3079 27.7198 51.6043 28.5783 51.6672 29.4691V29.4687ZM82.0046 32.0046L72.9188 22.9172L70.9438 35.1858C71.4445 35.4375 71.8942 35.7797 72.2704 36.1951L82.0046 32.0046ZM60.2358 61.4858C60.5913 60.8403 61.1021 60.2935 61.722 59.895C62.3419 59.4964 63.0513 59.2586 63.7861 59.203L66.3954 42.9735C66.1908 42.8376 66.0079 42.6751 65.8283 42.5079L35.7748 55.4421C35.8514 55.7562 35.9045 56.0765 35.9295 56.4093L60.2358 61.4858ZM84.4795 34.4811L73.9672 39.0045L99.9047 50.0938L99.9984 50L84.4795 34.4811ZM65.6939 67.8204L62.5346 87.4623L80.8796 69.1173L67.6657 66.3579C67.159 67.0211 66.4756 67.528 65.6939 67.8204ZM30.0359 62.7705C29.3718 62.7705 28.7359 62.6564 28.1406 62.4545L22.0469 71.9907L19.6923 69.6376L25.4641 60.6065C25.3213 60.4293 25.1883 60.2446 25.0656 60.053L14.6095 64.5548L12.1311 62.0764L23.5762 57.1499L2.88472 52.8312L0.0546866 50L0.949985 49.1047L24.8109 54.0859C25.0853 53.5653 25.4367 53.0891 25.8531 52.6734L14.272 35.7811L16.6111 33.4421L28.7105 51.0922C29.145 50.9913 29.5894 50.9394 30.0355 50.9375C30.5464 50.9375 31.0417 51.0094 31.5151 51.1312L42.8372 33.4155C41.9155 32.4593 41.4007 31.1827 41.4013 29.8546C41.4013 29.4484 41.4529 29.0546 41.5419 28.6765L27.4172 22.6375L29.8948 20.1595L43.2774 25.8828C43.9561 25.3235 44.7672 24.9482 45.6328 24.7931C46.4984 24.6379 47.3893 24.7081 48.2199 24.9969L58.6589 8.65924L50 0L0 50L50 100L54.9202 95.0798L32.4264 62.2639C31.6736 62.5976 30.8593 62.7702 30.0359 62.7705ZM69.5782 43.6731L66.9236 60.1717C67.3875 60.5445 67.7717 61.0068 68.0532 61.5311C68.3348 62.0554 68.508 62.631 68.5626 63.2236L83.6296 66.3689L97.4262 52.5722L72.5235 41.9251C71.8109 42.8738 70.7522 43.5022 69.5782 43.6735V43.6731Z" fill="#25C7B7"/>
</svg>
