<svg width="48" height="49" viewBox="0 0 48 49" fill="none" xmlns="http://www.w3.org/2000/svg">
<g clip-path="url(#clip0_1_299)">
<path d="M15.1003 43.5017C33.2091 43.5017 43.1166 28.4951 43.1166 15.4854C43.1166 15.0636 43.1072 14.6323 43.0884 14.2104C45.0158 12.8166 46.679 11.0902 48 9.11231C46.205 9.91091 44.2993 10.4325 42.3478 10.6592C44.4026 9.42753 45.9411 7.49265 46.6781 5.21324C44.7451 6.35882 42.6312 7.16693 40.4269 7.60293C38.9417 6.02483 36.978 4.97994 34.8394 4.62981C32.7008 4.27968 30.5064 4.64381 28.5955 5.6659C26.6846 6.68799 25.1636 8.31112 24.2677 10.2843C23.3718 12.2575 23.1509 14.4709 23.6391 16.5823C19.725 16.3859 15.8959 15.3691 12.4 13.5979C8.90405 11.8267 5.81939 9.34058 3.34594 6.30074C2.0888 8.4682 1.70411 11.033 2.27006 13.4739C2.83601 15.9148 4.31013 18.0486 6.39281 19.4417C4.82926 19.392 3.29995 18.9711 1.93125 18.2136V18.3354C1.92985 20.61 2.7162 22.8149 4.15662 24.5752C5.59704 26.3356 7.60265 27.5428 9.8325 27.9917C8.38411 28.388 6.86396 28.4457 5.38969 28.1604C6.01891 30.1166 7.24315 31.8275 8.89154 33.0544C10.5399 34.2813 12.5302 34.9629 14.5847 35.0042C11.0968 37.7439 6.78835 39.23 2.35313 39.2229C1.56657 39.2217 0.780798 39.1735 0 39.0786C4.50571 41.9692 9.74706 43.5045 15.1003 43.5017Z" fill="white"/>
</g>
<defs>
<clipPath id="clip0_1_299">
<rect width="48" height="48" fill="white" transform="translate(0 0.00170898)"/>
</clipPath>
</defs>
</svg>
