<svg width="100" height="99" viewBox="0 0 100 99" fill="none" xmlns="http://www.w3.org/2000/svg">
<path d="M0.951416 34.4984C0.951416 34.4984 -1.48421 32.7427 1.43854 30.3984L8.24814 24.3093C8.24814 24.3093 10.1966 22.2593 12.2568 24.0455L75.0959 71.6214V94.4351C75.0959 94.4351 75.0655 98.0175 70.4682 97.6217L0.951416 34.4984Z" fill="#2489CA"/>
<path d="M17.1483 49.2039L0.951379 63.9292C0.951379 63.9292 -0.712967 65.1673 0.951379 67.3797L8.47138 74.2197C8.47138 74.2197 10.2575 76.1378 12.8961 73.9559L30.0673 60.9354L17.1483 49.2039Z" fill="#1070B3"/>
<path d="M45.5844 49.3255L75.2889 26.6437L75.0961 3.95174C75.0961 3.95174 73.8275 -1.00072 69.5956 1.577L30.0674 37.5533L45.5844 49.3255Z" fill="#0877B9"/>
<path d="M70.4685 97.6524C72.1937 99.4182 74.2843 98.8397 74.2843 98.8397L97.4329 87.4329C100.396 85.4133 99.9801 82.9067 99.9801 82.9067V14.7902C99.9801 11.7964 96.9153 10.7613 96.9153 10.7613L76.8518 1.08978C72.4677 -1.61985 69.5957 1.57691 69.5957 1.57691C69.5957 1.57691 73.2897 -1.08199 75.0962 3.95165V94.0192C75.0962 94.6383 74.9642 95.2472 74.7004 95.7952C74.1726 96.8608 73.0259 97.8553 70.2756 97.4392L70.4685 97.6524Z" fill="#3C99D4"/>
</svg>
